<?xml version="1.0" encoding="UTF-8" standalone="no"?>
<svg
   xmlns:dc="http://purl.org/dc/elements/1.1/"
   xmlns:cc="http://creativecommons.org/ns#"
   xmlns:rdf="http://www.w3.org/1999/02/22-rdf-syntax-ns#"
   xmlns:svg="http://www.w3.org/2000/svg"
   xmlns="http://www.w3.org/2000/svg"
   xmlns:sodipodi="http://sodipodi.sourceforge.net/DTD/sodipodi-0.dtd"
   xmlns:inkscape="http://www.inkscape.org/namespaces/inkscape"
   width="510"
   height="121"
   viewBox="0 0 510 121"
   fill="none"
   version="1.1"
   id="svg130"
   sodipodi:docname="nsd.svg"
   inkscape:version="1.0.2-2 (e86c870879, 2021-01-15)">
  <metadata
     id="metadata134">
    <rdf:RDF>
      <cc:Work
         rdf:about="">
        <dc:format>image/svg+xml</dc:format>
        <dc:type
           rdf:resource="http://purl.org/dc/dcmitype/StillImage" />
        <dc:title></dc:title>
      </cc:Work>
    </rdf:RDF>
  </metadata>
  <sodipodi:namedview
     pagecolor="#ffffff"
     bordercolor="#666666"
     borderopacity="1"
     objecttolerance="10"
     gridtolerance="10"
     guidetolerance="10"
     inkscape:pageopacity="0"
     inkscape:pageshadow="2"
     inkscape:window-width="1920"
     inkscape:window-height="1017"
     id="namedview132"
     showgrid="false"
     inkscape:zoom="1.4142136"
     inkscape:cx="322.00675"
     inkscape:cy="68.803589"
     inkscape:window-x="-8"
     inkscape:window-y="-8"
     inkscape:window-maximized="1"
     inkscape:current-layer="svg130" />
  <rect
     width="412.55286"
     height="121"
     fill="#ffffff"
     id="rect2"
     x="0"
     y="0"
     style="stroke-width:0.899404" />
  <path
     d="M121.208 0H0V121H121.208V0Z"
     fill="#DB0626"
     id="path4" />
  <path
     d="M29.9495 38.7189V81.6055L40.2317 88.2231V88.2048L60.6039 67.8675L80.9852 88.2139V88.2231L91.2582 81.6055V38.7189L80.976 32.9971V33.0062L60.5947 53.3526L40.2225 33.0154V32.9971L29.9495 38.7189ZM67.8737 60.6009L80.976 47.512V73.6991L67.8737 60.6009ZM40.2225 73.6899V47.5302L53.334 60.6009L40.2225 73.6899Z"
     fill="white"
     id="path6" />
  <path
     fill-rule="evenodd"
     clip-rule="evenodd"
     d="M60.6011 67.8587L66.9032 74.1558L74.173 66.8892L67.8707 60.5977L60.6011 67.8587Z"
     fill="url(#paint0_linear)"
     id="path8" />
  <path
     fill-rule="evenodd"
     clip-rule="evenodd"
     d="M60.6084 53.348L53.3385 60.6054L47.0344 54.3121L54.3043 47.0547L60.6084 53.348Z"
     fill="url(#paint1_linear)"
     id="path10" />
  <path
     d="M150.159 100.791H156.898V101.815H151.267V109.685H150.159V100.791Z"
     fill="black"
     id="path12" />
  <path
     d="M157.768 100.791H162.867C164.616 100.791 165.66 101.714 165.66 103.204C165.66 104.685 164.69 105.791 163.023 105.791H158.875V109.685H157.768V100.791ZM162.803 104.749C163.93 104.749 164.506 104.237 164.506 103.295C164.506 102.372 163.93 101.815 162.858 101.815H158.875V104.749H162.803Z"
     fill="black"
     id="path14" />
  <path
     d="M169.68 106.751L165.733 100.801H167.153L170.44 105.682L173.498 100.801H174.789L169.222 109.694H167.949L169.68 106.751Z"
     fill="black"
     id="path16" />
  <path
     d="M176.052 100.791H183.533V109.685H182.425V101.815H177.169V109.685H176.043V100.791H176.052Z"
     fill="black"
     id="path18" />
  <path
     d="M185.986 100.791H193.467V109.685H192.359V101.815H187.103V109.685H185.977V100.791H185.986Z"
     fill="black"
     id="path20" />
  <path
     d="M198.942 100.791H199.867L204.28 109.685H203.072L201.872 107.29H196.946L195.774 109.685H194.584L198.942 100.791ZM201.369 106.248L199.4 102.317L197.45 106.248H201.369Z"
     fill="black"
     id="path22" />
  <path
     d="M210.433 100.791H211.459L214.892 106.239L218.344 100.791H219.351V109.685H218.262V102.738L214.892 107.994L211.523 102.738V109.685H210.433V100.791Z"
     fill="black"
     id="path24" />
  <path
     d="M221.008 105.261C221.008 102.555 222.959 100.59 225.614 100.59C228.269 100.59 230.238 102.555 230.238 105.261C230.238 107.966 228.269 109.913 225.614 109.913C222.959 109.913 221.008 107.966 221.008 105.261ZM229.084 105.261C229.084 103.149 227.61 101.632 225.614 101.632C223.636 101.632 222.144 103.149 222.144 105.261C222.144 107.372 223.627 108.871 225.614 108.871C227.61 108.871 229.084 107.354 229.084 105.261Z"
     fill="black"
     id="path26" />
  <path
     d="M239.925 107.509C239.101 109.054 237.626 109.913 235.832 109.913C233.177 109.913 231.226 107.966 231.226 105.261C231.226 102.555 233.177 100.59 235.832 100.59C237.48 100.59 238.89 101.348 239.732 102.674L238.808 103.332C238.249 102.263 237.123 101.632 235.832 101.632C233.854 101.632 232.362 103.149 232.362 105.261C232.362 107.372 233.845 108.871 235.832 108.871C237.214 108.871 238.322 108.185 239.036 106.842L239.925 107.509Z"
     fill="black"
     id="path28" />
  <path
     d="M241.655 100.791H242.763V105.215L247.79 100.791H249.245L245.647 103.944L249.795 109.685H248.458L244.86 104.703L242.772 106.513V109.685H241.664V100.791H241.655Z"
     fill="black"
     id="path30" />
  <path
     d="M249.886 105.261C249.886 102.555 251.837 100.59 254.492 100.59C257.147 100.59 259.116 102.555 259.116 105.261C259.116 107.966 257.147 109.913 254.492 109.913C251.837 109.913 249.886 107.966 249.886 105.261ZM257.962 105.261C257.962 103.149 256.497 101.632 254.492 101.632C252.505 101.632 251.022 103.149 251.022 105.261C251.022 107.372 252.505 108.871 254.492 108.871C256.497 108.871 257.962 107.354 257.962 105.261Z"
     fill="black"
     id="path32" />
  <path
     d="M260.81 100.791H266.074C267.86 100.791 268.73 101.568 268.73 103.003C268.73 103.716 268.455 104.292 267.924 104.639C268.885 105.178 269.361 105.992 269.361 107.016C269.361 108.633 268.244 109.685 266.358 109.685H260.81V100.791ZM266.184 104.31C267.127 104.31 267.622 103.862 267.622 103.067C267.622 102.226 267.146 101.815 266.184 101.815H261.927V104.301H266.184V104.31ZM266.578 108.661C267.622 108.661 268.217 108.003 268.217 106.997C268.217 106.001 267.622 105.325 266.578 105.325H261.917V108.661H266.578Z"
     fill="black"
     id="path34" />
  <path
     d="M279.332 107.509C278.508 109.054 277.043 109.913 275.24 109.913C272.584 109.913 270.634 107.966 270.634 105.261C270.634 102.555 272.584 100.59 275.24 100.59C276.888 100.59 278.298 101.348 279.14 102.674L278.215 103.332C277.648 102.263 276.531 101.632 275.24 101.632C273.262 101.632 271.769 103.149 271.769 105.261C271.769 107.372 273.253 108.871 275.24 108.871C276.631 108.871 277.73 108.185 278.444 106.842L279.332 107.509Z"
     fill="black"
     id="path36" />
  <path
     d="M281.063 100.791H282.171V105.215L287.188 100.791H288.644L285.046 103.944L289.193 109.685H287.857L284.249 104.703L282.171 106.513V109.685H281.063V100.791Z"
     fill="black"
     id="path38" />
  <path
     d="M293.542 100.791H294.467L298.871 109.685H297.672L296.463 107.29H291.537L290.365 109.685H289.175L293.542 100.791ZM295.969 106.248L294 102.317L292.059 106.248H295.969Z"
     fill="black"
     id="path40" />
  <path
     d="M306.04 109.685V105.873H303.037L300.446 109.685H299.219L301.828 105.791C301.307 105.754 300.547 105.581 300.034 105.078C299.613 104.667 299.356 104.045 299.356 103.332C299.356 102.555 299.649 101.897 300.061 101.504C300.446 101.138 301.105 100.791 302.231 100.791H307.148V109.685H306.04ZM306.04 101.815H302.176C301.966 101.815 301.38 101.833 301.023 102.116C300.721 102.345 300.51 102.793 300.51 103.35C300.51 103.908 300.739 104.255 300.968 104.456C301.206 104.648 301.6 104.84 302.231 104.84H306.04V101.815Z"
     fill="black"
     id="path42" />
  <path
     d="M314.629 100.791H321.954V101.815H315.737V104.301H319.518C320.589 104.301 321.56 104.484 322.192 105.169C322.457 105.471 322.805 106.028 322.805 106.952C322.805 107.957 322.393 108.569 322.045 108.899C321.331 109.593 320.388 109.675 319.793 109.675H314.62V100.791H314.629ZM319.958 108.661C320.534 108.661 320.946 108.478 321.194 108.268C321.432 108.048 321.661 107.674 321.661 106.997C321.661 106.348 321.432 105.992 321.212 105.773C320.763 105.361 320.049 105.325 319.774 105.325H315.746V108.661H319.958Z"
     fill="black"
     id="path44" />
  <path
     d="M331.164 109.685V102.793L325.506 109.685H324.783V100.791H325.891V107.692L331.531 100.791H332.272V109.685H331.164Z"
     fill="black"
     id="path46" />
  <path
     d="M334.644 100.791H339.744C341.492 100.791 342.536 101.714 342.536 103.204C342.536 104.685 341.556 105.791 339.89 105.791H335.742V109.685H334.635V100.791H334.644ZM339.679 104.749C340.806 104.749 341.382 104.237 341.382 103.295C341.382 102.372 340.806 101.815 339.734 101.815H335.752V104.749H339.679Z"
     fill="black"
     id="path48" />
  <path
     d="M348.13 106.468L346.821 105.133L343.525 109.685H342.188L346.034 104.374L342.646 100.782H344.001L348.13 105.17V100.755H349.257V105.17L353.386 100.782H354.741L351.353 104.374L355.208 109.685H353.871L350.566 105.133L349.257 106.486V109.685H348.13V106.468Z"
     fill="black"
     id="path50" />
  <path
     d="M359.612 100.791H360.537L364.95 109.685H363.742L362.542 107.29H357.616L356.444 109.685H355.254L359.612 100.791ZM362.048 106.248L360.088 102.317L358.138 106.248H362.048Z"
     fill="black"
     id="path52" />
  <path
     d="M162.904 22.2477H154.014V30.9767H150.159V11.5352H154.014V18.5732H162.904V11.5352H166.759V30.9767H162.904V22.2477Z"
     fill="black"
     id="path54" />
  <path
     d="M184.32 26.1323H175.466L173.15 30.9767H168.892L178.442 11.5352H181.344L190.967 30.9767H186.701L184.32 26.1323ZM177.306 22.467H182.489L179.879 17.2662L177.306 22.467Z"
     fill="black"
     id="path56" />
  <path
     d="M208.895 11.5352V27.3754H212.273V35.3732H208.895V30.9767H193.101V11.5352H196.955V27.3114H205.04V11.5352H208.895Z"
     fill="black"
     id="path58" />
  <path
     d="M218.481 30.9767H215.835V11.5352H219.69V24.158L229.569 11.5352H232.252V30.9767H228.397V18.3539L218.481 30.9767Z"
     fill="black"
     id="path60" />
  <path
     d="M246.426 31.4518C244.979 31.4518 243.642 31.1959 242.424 30.684C241.197 30.1722 240.135 29.4684 239.229 28.5726C238.322 27.6769 237.617 26.6074 237.114 25.3643C236.61 24.1213 236.363 22.7593 236.363 21.2969C236.363 19.8344 236.61 18.4725 237.114 17.2203C237.617 15.9772 238.322 14.9078 239.229 14.012C240.135 13.1163 241.197 12.4125 242.424 11.9006C243.651 11.3796 244.979 11.1328 246.426 11.1328C247.872 11.1328 249.209 11.3887 250.445 11.9006C251.681 12.4125 252.743 13.1163 253.64 14.012C254.538 14.9078 255.234 15.9681 255.746 17.2203C256.259 18.4634 256.525 19.8253 256.525 21.2969C256.525 22.7593 256.268 24.1121 255.746 25.3643C255.234 26.6166 254.529 27.686 253.64 28.5726C252.743 29.4684 251.681 30.163 250.445 30.684C249.209 31.1959 247.863 31.4518 246.426 31.4518ZM246.426 14.8712C245.565 14.8712 244.768 15.0357 244.017 15.3465C243.267 15.6664 242.626 16.1052 242.076 16.6719C241.527 17.2386 241.097 17.9058 240.785 18.6919C240.483 19.4688 240.328 20.3463 240.328 21.2969C240.328 22.2475 240.483 23.1158 240.785 23.8927C241.088 24.6788 241.518 25.3552 242.076 25.931C242.626 26.5069 243.276 26.9456 244.017 27.2473C244.768 27.5489 245.565 27.7043 246.426 27.7043C247.305 27.7043 248.119 27.5397 248.87 27.229C249.612 26.9091 250.271 26.4703 250.811 25.9036C251.361 25.3369 251.791 24.6697 252.102 23.8836C252.404 23.1067 252.56 22.2383 252.56 21.2877C252.56 20.3371 252.404 19.4597 252.102 18.6827C251.791 17.8967 251.37 17.2294 250.811 16.6627C250.262 16.096 249.612 15.6573 248.87 15.3374C248.119 15.0357 247.305 14.8712 246.426 14.8712Z"
     fill="black"
     id="path62" />
  <path
     d="M273.042 22.2477H264.151V30.9767H260.288V11.5352H264.151V18.5732H273.042V11.5352H276.897V30.9767H273.042V22.2477Z"
     fill="black"
     id="path64" />
  <path
     d="M294.485 26.1323H285.632L283.315 30.9767H279.048L288.598 11.5352H291.501L301.124 30.9767H296.866L294.485 26.1323ZM287.472 22.467H292.654L290.045 17.2662L287.472 22.467Z"
     fill="black"
     id="path66" />
  <path
     d="M312.935 17.1108L306.983 30.9767H302.753L311.497 11.5352H314.391L323.208 30.9767H318.987L312.935 17.1108Z"
     fill="black"
     id="path68" />
  <path
     d="M334.47 18.6189C335.971 18.6189 337.281 18.7469 338.416 19.0028C339.542 19.2588 340.495 19.8437 341.282 20.7486C341.795 21.361 342.161 22.0009 342.372 22.6681C342.582 23.3445 342.683 24.0209 342.683 24.7064C342.683 25.9038 342.491 26.8727 342.097 27.6222C341.703 28.3717 341.264 28.9567 340.769 29.368C340.357 29.7336 339.909 30.0261 339.442 30.2546C338.975 30.474 338.526 30.6385 338.077 30.7482C337.638 30.8579 337.217 30.9218 336.832 30.9493C336.448 30.9767 336.109 30.9858 335.843 30.9858H325.341V11.5352H329.196V18.6189H334.47ZM335.761 27.3114C336.054 27.3114 336.393 27.2931 336.777 27.2566C337.162 27.22 337.519 27.0646 337.867 26.7995C338.141 26.6076 338.352 26.3334 338.499 25.9769C338.645 25.6204 338.718 25.2365 338.718 24.8161C338.718 24.3956 338.645 24.0117 338.499 23.6553C338.352 23.3079 338.16 23.0246 337.913 22.8326C337.592 22.5676 337.226 22.403 336.805 22.3573C336.393 22.3116 336.081 22.2842 335.88 22.2842H329.205V27.3114H335.761Z"
     fill="black"
     id="path70" />
  <path
     d="M358.788 22.2477H349.898V30.9767H346.034V11.5352H349.898V18.5732H358.788V11.5352H362.643V30.9767H358.788V22.2477Z"
     fill="black"
     id="path72" />
  <path
     d="M375.983 18.6189C377.485 18.6189 378.803 18.7469 379.92 19.0028C381.056 19.2588 382.008 19.8437 382.795 20.7486C383.335 21.3793 383.702 22.0283 383.903 22.6955C384.105 23.3536 384.205 24.0026 384.205 24.6424C384.205 25.7667 384.022 26.7173 383.665 27.4851C383.308 28.2529 382.878 28.8744 382.392 29.3314C381.66 30.0444 380.836 30.4923 379.948 30.6842C379.05 30.8761 378.181 30.9767 377.357 30.9767H367.01V11.5352H370.865V18.6189H375.983ZM377.476 27.3114C377.814 27.3114 378.171 27.284 378.538 27.2383C378.904 27.1834 379.234 27.0372 379.536 26.7904C379.902 26.4979 380.131 26.1597 380.213 25.7667C380.305 25.3737 380.341 25.0537 380.341 24.8069C380.341 24.5145 380.296 24.1945 380.213 23.8381C380.131 23.4816 379.939 23.1708 379.646 22.9058C379.325 22.6041 378.968 22.4305 378.583 22.3665C378.19 22.3025 377.824 22.2751 377.485 22.2751H370.874V27.3023H377.476V27.3114ZM387.465 11.5352H391.32V30.9767H387.465V11.5352Z"
     fill="black"
     id="path74" />
  <path
     d="M398.681 30.9763H396.035V11.5347H399.89V24.1576L409.769 11.5347H412.452V30.9763H408.597V18.3534L398.681 30.9763ZM410.144 5.44727C410.117 5.72148 410.08 6.04139 410.016 6.39786C409.952 6.76348 409.851 7.12909 409.723 7.4947C409.595 7.86032 409.412 8.22593 409.192 8.58241C408.972 8.93888 408.689 9.24051 408.35 9.47816C407.782 9.89862 407.132 10.1545 406.381 10.246C405.64 10.3465 404.971 10.3922 404.376 10.3922C403.79 10.3922 403.122 10.3465 402.371 10.246C401.629 10.1454 400.97 9.88948 400.411 9.47816C400.073 9.24051 399.789 8.93888 399.569 8.58241C399.349 8.22593 399.166 7.86946 399.038 7.4947C398.91 7.12909 398.809 6.76348 398.745 6.39786C398.681 6.03225 398.644 5.71234 398.626 5.44727H401.602C401.62 6.30646 401.904 6.89144 402.444 7.21135C402.719 7.37588 403.021 7.48556 403.369 7.52213C403.708 7.55869 404.056 7.57697 404.394 7.57697C404.669 7.57697 404.98 7.55869 405.347 7.52213C405.713 7.48556 406.061 7.36674 406.372 7.17479C406.812 6.8823 407.086 6.30646 407.178 5.44727H410.144Z"
     fill="black"
     id="path76" />
  <path
     d="M161.192 40.5283C162.492 40.5283 163.527 40.7111 164.296 41.0676C165.065 41.4424 165.642 41.8171 166.035 42.2101C166.429 42.5758 166.786 43.0968 167.116 43.764C167.446 44.4404 167.61 45.3179 167.61 46.4238C167.61 47.5207 167.436 48.4256 167.098 49.1294C166.75 49.8423 166.383 50.409 165.99 50.8112C165.623 51.2043 165.239 51.5059 164.809 51.7253C164.387 51.9538 163.985 52.1091 163.591 52.228C163.197 52.3377 162.822 52.4108 162.455 52.4473C162.089 52.493 161.769 52.5113 161.494 52.5113H153.995V59.9424H150.159V40.5283H161.192ZM160.853 48.7638C161.119 48.7638 161.467 48.7272 161.869 48.6724C162.272 48.6175 162.62 48.453 162.913 48.2154C162.987 48.1422 163.133 47.9503 163.334 47.6578C163.536 47.3653 163.646 46.9357 163.646 46.369C163.646 45.8754 163.563 45.5098 163.408 45.263C163.252 45.0162 163.106 44.8334 162.987 44.7055C162.721 44.4587 162.41 44.3124 162.071 44.2576C161.723 44.2119 161.384 44.1845 161.036 44.1845H154.014V48.7638H160.853Z"
     fill="black"
     id="path78" />
  <path
     d="M181.885 55.098H173.04L170.733 59.9333H166.475L176.016 40.5283H178.918L188.532 59.9333H184.274L181.885 55.098ZM174.88 51.4328H180.053L177.444 46.2319L174.88 51.4328Z"
     fill="black"
     id="path80" />
  <path
     d="M208.217 55.0241C207.769 55.8742 207.256 56.6237 206.642 57.2909C206.029 57.9582 205.388 58.4975 204.729 58.9453C203.923 59.4846 203.099 59.8594 202.238 60.0787C201.387 60.2981 200.435 60.3987 199.382 60.3987C198.036 60.3987 196.736 60.1976 195.472 59.8045C194.209 59.3932 193.055 58.662 192.002 57.5743C191.224 56.7974 190.555 55.7828 190.024 54.558C189.484 53.324 189.219 51.9255 189.219 50.3625C189.219 49.0189 189.457 47.6936 189.914 46.3682C190.381 45.052 191.086 43.9095 192.039 42.9314C192.359 42.6115 192.744 42.2825 193.192 41.9626C193.641 41.6335 194.172 41.3319 194.767 41.0485C195.362 40.7652 196.049 40.5458 196.818 40.3721C197.587 40.1985 198.448 40.1162 199.4 40.1162C200.453 40.1162 201.414 40.235 202.293 40.4635C203.172 40.6921 203.96 41.0211 204.646 41.4324C205.26 41.7706 205.864 42.2185 206.441 42.7669C207.027 43.3153 207.558 43.9369 208.016 44.6133L204.756 46.9258C204.482 46.487 204.161 46.0574 203.777 45.637C203.392 45.2257 202.989 44.8875 202.55 44.6133C202.156 44.3939 201.698 44.2111 201.167 44.0648C200.645 43.9277 200.041 43.8546 199.354 43.8546C198.42 43.8546 197.605 43.9917 196.891 44.2568C196.177 44.531 195.536 44.9515 194.95 45.5364C194.483 46.0026 194.062 46.6241 193.687 47.4011C193.311 48.178 193.119 49.156 193.119 50.326C193.119 51.3497 193.302 52.2637 193.65 53.0681C194.007 53.8816 194.456 54.5488 194.987 55.0881C195.472 55.5725 196.067 55.9656 196.763 56.2398C197.459 56.514 198.274 56.6603 199.199 56.6603C199.931 56.6603 200.59 56.5597 201.185 56.3678C201.771 56.1667 202.33 55.8742 202.87 55.4903C203.282 55.1795 203.694 54.7865 204.097 54.3386C204.5 53.8907 204.839 53.3514 205.104 52.7116L208.217 55.0241Z"
     fill="black"
     id="path82" />
  <path
     d="M222.922 59.9333V52.0177H217.941C217.447 52.0177 216.925 51.9903 216.357 51.9446C215.798 51.8989 215.24 51.7984 214.691 51.6704C214.141 51.5333 213.619 51.3505 213.125 51.1037C212.64 50.8569 212.209 50.537 211.843 50.144C211.175 49.431 210.781 48.6632 210.625 47.8223C210.479 46.9814 210.406 46.2319 210.406 45.5738V40.5283H214.251V44.6232C214.251 45.0437 214.288 45.5372 214.379 46.1039C214.471 46.6798 214.727 47.1734 215.167 47.5938C215.386 47.7858 215.67 47.9411 216.009 48.0691C216.348 48.1971 216.687 48.2793 217.034 48.325C217.373 48.3707 217.685 48.4073 217.968 48.4164C218.252 48.4256 218.463 48.4347 218.618 48.4347H222.903V40.5375H226.758V59.9424H222.922V59.9333Z"
     fill="black"
     id="path84" />
  <path
     d="M232.417 40.5283H248.037V44.1845H236.262V47.7766H243.413V51.4328H236.262V56.2771H248.769V59.9333H232.407V40.5283H232.417Z"
     fill="black"
     id="path86" />
  <path
     d="M262.934 59.9327H259.088V44.1747H251.608V40.5186H270.423V44.1747H262.943V59.9327H262.934Z"
     fill="black"
     id="path88" />
  <path
     d="M286.401 51.2134H277.519V59.9333H273.665V40.5283H277.519V47.5573H286.401V40.5283H290.246V59.9333H286.401V51.2134Z"
     fill="black"
     id="path90" />
  <path
     d="M304.237 47.5847C305.729 47.5847 307.048 47.7126 308.165 47.9686C309.291 48.2245 310.252 48.8095 311.04 49.7144C311.571 50.3451 311.946 50.994 312.148 51.6521C312.34 52.3102 312.441 52.9592 312.441 53.5899C312.441 54.7141 312.267 55.6647 311.909 56.4325C311.562 57.2003 311.131 57.8127 310.637 58.2697C309.904 58.9827 309.089 59.4306 308.192 59.6317C307.295 59.8236 306.434 59.9241 305.601 59.9241H295.273V40.5283H299.128V47.5938H304.237V47.5847ZM305.729 56.268C306.077 56.268 306.434 56.2406 306.8 56.1857C307.167 56.14 307.496 55.9938 307.789 55.747C308.155 55.4545 308.384 55.1163 308.467 54.7233C308.549 54.3303 308.595 54.0195 308.595 53.7727C308.595 53.4802 308.558 53.1603 308.467 52.8038C308.384 52.4473 308.192 52.1366 307.899 51.8715C307.588 51.579 307.231 51.3962 306.837 51.3322C306.443 51.2774 306.077 51.2408 305.738 51.2408H299.137V56.2589H305.729V56.268ZM315.233 40.5283H319.088V59.9333H315.233V40.5283Z"
     fill="black"
     id="path92" />
  <path
     d="M326.248 59.9329H323.602V40.5279H327.456V53.1233L337.317 40.5279H340V59.9329H336.145V47.3283L326.248 59.9329ZM337.684 34.4404C337.656 34.7055 337.61 35.0254 337.555 35.391C337.491 35.7566 337.4 36.1223 337.262 36.4879C337.134 36.8535 336.942 37.21 336.722 37.5664C336.502 37.9229 336.228 38.2154 335.88 38.4622C335.321 38.8735 334.662 39.1294 333.92 39.23C333.17 39.3305 332.51 39.3762 331.915 39.3762C331.329 39.3762 330.661 39.3305 329.919 39.23C329.178 39.1386 328.518 38.8735 327.96 38.4622C327.621 38.2154 327.337 37.9229 327.117 37.5664C326.898 37.21 326.724 36.8535 326.586 36.4879C326.449 36.1223 326.358 35.7566 326.284 35.391C326.229 35.0254 326.184 34.7055 326.165 34.4404H329.132C329.159 35.2996 329.443 35.8846 329.974 36.1954C330.249 36.3599 330.551 36.4696 330.89 36.5061C331.238 36.5427 331.576 36.561 331.915 36.561C332.181 36.561 332.501 36.5427 332.867 36.5061C333.234 36.4696 333.572 36.3508 333.893 36.1588C334.332 35.8663 334.607 35.2905 334.699 34.4404H337.684Z"
     fill="black"
     id="path94" />
  <path
     d="M168.892 88.8806H153.382V93.2771H150.159V85.2245H153.052L159.91 69.4482H162.327L169.222 85.2245H172.115V93.2771H168.883V88.8806H168.892ZM161.119 75.554L157.237 85.2154H165.047L161.119 75.554Z"
     fill="black"
     id="path96" />
  <path
     d="M175.494 69.4756H191.114V73.1409H179.339V76.7239H186.49V80.3892H179.339V85.2244H191.846V88.8806H175.494V69.4756Z"
     fill="black"
     id="path98" />
  <path
     d="M208.702 73.1409H199.794V88.8806H195.939V69.4756H212.557V88.8806H208.693V73.1409H208.702Z"
     fill="black"
     id="path100" />
  <path
     d="M226.163 89.3557C224.716 89.3557 223.389 89.0998 222.162 88.5879C220.935 88.076 219.873 87.3722 218.976 86.4765C218.069 85.5899 217.364 84.5204 216.87 83.2774C216.366 82.0343 216.119 80.6815 216.119 79.2099C216.119 77.7474 216.375 76.3947 216.87 75.1424C217.364 73.8993 218.069 72.8299 218.976 71.9433C219.882 71.0567 220.935 70.3529 222.162 69.841C223.389 69.3292 224.716 69.0732 226.163 69.0732C227.601 69.0732 228.946 69.3292 230.173 69.841C231.409 70.3529 232.472 71.0567 233.369 71.9433C234.257 72.8299 234.962 73.8993 235.475 75.1424C235.987 76.3947 236.244 77.7383 236.244 79.2099C236.244 80.6815 235.987 82.0343 235.475 83.2774C234.962 84.5204 234.257 85.5899 233.369 86.4765C232.472 87.3631 231.409 88.0669 230.173 88.5879C228.946 89.0906 227.601 89.3557 226.163 89.3557ZM226.163 72.8025C225.302 72.8025 224.506 72.967 223.764 73.2778C223.013 73.5977 222.363 74.0365 221.823 74.6032C221.274 75.1607 220.843 75.8371 220.541 76.614C220.239 77.4001 220.083 78.2593 220.083 79.2099C220.083 80.1605 220.239 81.0288 220.541 81.8058C220.843 82.5918 221.274 83.2682 221.823 83.8441C222.372 84.4108 223.013 84.8586 223.764 85.1603C224.506 85.4619 225.312 85.6173 226.163 85.6173C227.042 85.6173 227.857 85.4619 228.599 85.142C229.34 84.8312 229.99 84.3925 230.54 83.8258C231.089 83.2682 231.519 82.5918 231.821 81.8058C232.124 81.0288 232.279 80.1605 232.279 79.2099C232.279 78.2593 232.124 77.4001 231.821 76.614C231.519 75.8371 231.089 75.1607 230.54 74.6032C229.99 74.0365 229.34 73.5977 228.599 73.2778C227.857 72.967 227.042 72.8025 226.163 72.8025Z"
     fill="black"
     id="path102" />
  <path
     d="M240.602 82.7651C241.014 83.1399 241.518 83.5146 242.122 83.8894C242.717 84.2733 243.422 84.6206 244.228 84.9131C244.979 85.1873 245.729 85.3884 246.48 85.5072C247.231 85.6261 247.936 85.6992 248.586 85.6992C249.154 85.6992 249.74 85.6444 250.372 85.5529C250.994 85.4524 251.525 85.2787 251.965 85.0319C252.551 84.712 252.935 84.3373 253.137 83.9077C253.329 83.4781 253.43 83.0759 253.43 82.7103C253.43 82.2898 253.329 81.9608 253.155 81.714C252.972 81.4672 252.706 81.2478 252.368 81.0468C251.919 80.7908 251.379 80.6446 250.729 80.5623C250.079 80.4892 249.209 80.4526 248.11 80.4526H245.693V76.6868H248.659C249.493 76.6868 250.124 76.6685 250.546 76.6137C250.976 76.568 251.324 76.4766 251.599 76.3578C251.818 76.2663 252.047 76.111 252.294 75.919C252.542 75.7271 252.661 75.4072 252.661 74.9684C252.661 74.7033 252.606 74.4748 252.496 74.2738C252.386 74.0818 252.249 73.9173 252.093 73.7984C251.928 73.6705 251.772 73.5791 251.617 73.5151C251.452 73.442 251.324 73.378 251.232 73.3232C250.866 73.1769 250.436 73.0581 249.95 72.9758C249.465 72.8936 248.87 72.857 248.192 72.857C246.764 72.857 245.482 73.0672 244.338 73.4694C243.202 73.8899 242.177 74.4474 241.261 75.1604L238.982 72.1258C239.586 71.687 240.254 71.2757 240.959 70.8918C241.664 70.5171 242.397 70.1972 243.157 69.9229C244.722 69.3562 246.508 69.082 248.513 69.082C248.907 69.082 249.346 69.1003 249.831 69.1369C250.326 69.1734 250.82 69.2374 251.342 69.338C251.855 69.4294 252.368 69.5756 252.899 69.7584C253.421 69.9412 253.924 70.1789 254.391 70.4714C254.922 70.837 255.362 71.23 255.682 71.6505C256.012 72.0618 256.259 72.4731 256.433 72.8753C256.607 73.2775 256.717 73.6522 256.772 74.0087C256.817 74.3652 256.836 74.6576 256.836 74.9044C256.836 75.6082 256.68 76.2938 256.36 76.9336C256.039 77.5826 255.508 78.0487 254.785 78.3412C255.197 78.5332 255.563 78.7708 255.865 79.0359C256.167 79.3101 256.424 79.5752 256.616 79.8494C256.964 80.3064 257.184 80.7634 257.275 81.2021C257.367 81.6409 257.422 82.0796 257.422 82.5183C257.422 83.5512 257.266 84.4561 256.946 85.2696C256.625 86.0739 256.085 86.796 255.298 87.4267C254.309 88.2219 253.237 88.7521 252.065 88.9989C250.884 89.2457 249.722 89.3645 248.54 89.3645C247.442 89.3645 246.407 89.2914 245.427 89.1542C244.457 88.9989 243.45 88.7521 242.415 88.3773C240.95 87.8472 239.595 87.0611 238.341 86.0374L240.602 82.7651Z"
     fill="black"
     id="path104" />
  <path
     d="M264.554 88.8806H261.917V69.4756H265.763V82.071L275.633 69.4756H278.307V88.8806H274.452V76.2851L264.554 88.8806Z"
     fill="black"
     id="path106" />
  <path
     d="M293.185 88.8806H289.331V73.1409H281.85V69.4756H300.657V73.1409H293.176V88.8806H293.185Z"
     fill="black"
     id="path108" />
  <path
     d="M314.684 84.0453H305.839L303.532 88.8806H299.274L308.815 69.4756H311.717L321.322 88.8806H317.064L314.684 84.0453ZM307.67 80.38H312.843L310.243 75.1792L307.67 80.38Z"
     fill="black"
     id="path110" />
  <path
     d="M334.625 69.4756C335.916 69.4756 336.951 69.6584 337.72 70.024C338.489 70.3896 339.075 70.7735 339.46 71.1574C339.854 71.523 340.22 72.0532 340.549 72.7204C340.879 73.3785 341.044 74.2743 341.044 75.3711C341.044 76.4771 340.879 77.3729 340.531 78.0858C340.192 78.7896 339.826 79.3472 339.423 79.7676C339.057 80.1607 338.672 80.4623 338.251 80.6817C337.839 80.901 337.427 81.0656 337.033 81.1752C336.64 81.2758 336.264 81.3489 335.898 81.3946C335.532 81.4312 335.211 81.4494 334.946 81.4494H327.447V88.8806H323.602V69.4756H334.625ZM334.287 77.711C334.552 77.711 334.891 77.6745 335.294 77.6196C335.706 77.5557 336.054 77.4003 336.347 77.1535C336.42 77.0804 336.566 76.8976 336.777 76.5959C336.988 76.3034 337.098 75.8738 337.098 75.3071C337.098 74.8136 337.006 74.4479 336.85 74.2011C336.686 73.9544 336.548 73.7807 336.429 73.6436C336.164 73.3968 335.852 73.2597 335.514 73.2048C335.175 73.1591 334.827 73.1317 334.488 73.1317H327.456V77.711H334.287Z"
     fill="black"
     id="path112" />
  <path
     d="M347.261 88.8806H344.624V69.4756H348.469V82.071L358.34 69.4756H361.022V88.8806H357.168V76.2851L347.261 88.8806Z"
     fill="black"
     id="path114" />
  <path
     d="M368.356 88.8808H365.719V69.4758H369.574V82.0712L379.435 69.4758H382.109V88.8808H378.263V76.2854L368.356 88.8808ZM380.03 63.3975C380.003 63.6625 379.957 63.9824 379.902 64.3481C379.838 64.7137 379.737 65.0884 379.6 65.4449C379.472 65.8105 379.288 66.1761 379.069 66.5235C378.849 66.8799 378.565 67.1816 378.226 67.4192C377.668 67.8397 377.018 68.0865 376.267 68.187C375.525 68.2784 374.857 68.3333 374.262 68.3333C373.685 68.3333 373.017 68.2784 372.266 68.187C371.515 68.0865 370.865 67.8305 370.306 67.4192C369.968 67.1816 369.684 66.8799 369.464 66.5235C369.244 66.1761 369.07 65.8105 368.933 65.4449C368.796 65.0884 368.704 64.7137 368.64 64.3481C368.576 63.9824 368.539 63.6625 368.512 63.3975H371.478C371.506 64.2475 371.781 64.8416 372.321 65.1524C372.586 65.3261 372.888 65.4266 373.236 65.4632C373.584 65.4997 373.923 65.518 374.262 65.518C374.527 65.518 374.857 65.4997 375.214 65.4632C375.58 65.4266 375.928 65.3078 376.24 65.1158C376.679 64.8234 376.945 64.2475 377.054 63.3975H380.03Z"
     fill="black"
     id="path116" />
  <defs
     id="defs128">
    <linearGradient
       id="paint0_linear"
       x1="70.4841"
       y1="70.4653"
       x2="60.6602"
       y2="60.6245"
       gradientUnits="userSpaceOnUse">
      <stop
         stop-color="white"
         id="stop118" />
      <stop
         offset="1"
         stop-color="#DB0626"
         id="stop120" />
    </linearGradient>
    <linearGradient
       id="paint1_linear"
       x1="50.7247"
       y1="50.74"
       x2="60.549"
       y2="60.5812"
       gradientUnits="userSpaceOnUse">
      <stop
         stop-color="white"
         id="stop123" />
      <stop
         offset="1"
         stop-color="#DB0626"
         id="stop125" />
    </linearGradient>
  </defs>
</svg>
